<svg xmlns="http://www.w3.org/2000/svg" xml:space="preserve" viewBox="0 0 1024 1024"><path d="M459.55 517.494c4.352-20.505-2.226-37.145-16.4-51.19-15.674-15.534-34.43-26.671-53.725-36.982-21.225-11.342-43.894-19.128-66.458-27.229-19.641-7.051-38.743-15.363-55.126-28.702-10.521-8.567-19.095-18.382-21.423-32.574-2.292-13.97 2.087-25.47 11.216-35.725 14.478-16.265 33.678-24.75 53.42-32.076 27.205-10.096 55.435-16.238 84.12-20.406 29.487-4.283 59.117-6.156 88.897-7.26 25.19-.933 50.328-.647 75.412.579 47.047 2.299 93.7 7.946 138.995 21.742 21.11 6.43 41.556 14.401 59.388 27.832 6.831 5.146 12.95 11.098 17.129 18.65 9.017 16.3 6.776 31.734-4.388 46.09-9.477 12.187-21.817 20.929-35.34 28.077-19.802 10.467-41.17 17.009-62.058 24.788-30.14 11.224-58.41 25.974-83.38 46.517-7.123 5.86-13.13 12.815-18.01 20.629-11.231 17.987-9.124 40.133 5.374 57.988 11.89 14.644 27.501 24.432 43.555 33.798 30.525 17.807 63.932 28.992 96.28 42.624 17.778 7.492 34.465 16.81 47.902 31.005 9.021 9.53 15.716 20.164 15.461 34.046-.227 12.373-6.217 21.983-14.446 30.32-15.537 15.742-34.818 25.502-55.258 33.121-26.277 9.796-53.564 15.695-81.177 20.076-42.316 6.713-84.938 9.724-127.767 8.975-59.747-1.045-118.753-7.596-175.96-25.9-21.512-6.883-42.118-15.813-59.707-30.463-12.285-10.232-20.645-22.656-20.376-39.351.168-10.485 4.928-19.238 11.585-26.971 14.762-17.15 34.115-27.493 54.616-35.859 28.51-11.633 57.519-22.057 84.768-36.638 15.922-8.52 31.5-17.54 44.365-30.358 8.18-8.15 14.697-17.64 18.516-29.173M292.562 363.855c3.337 1.99 6.265 4.843 10.289 5.373.351-.683.583-.958.63-1.261.102-.656.19-1.331.145-1.989-.96-13.709 5.61-23.657 16.086-31.403 12.583-9.304 26.735-15.457 41.667-19.96 37.806-11.398 76.827-15.084 115.93-17.758 26.409-1.806 52.865-1.217 79.326.589 26.887 1.834 53.61 4.63 79.948 10.314 22.493 4.853 44.603 11.107 64.465 23.257 13.4 8.197 22.602 19.143 21.324 36.148-.068.901-.4 2.06 1.333 2.739 11.55-5.907 22.451-13.042 30.435-23.957 5.03-6.876 5.67-13.87.992-21.308-3.075-4.887-6.93-8.937-11.492-12.356-15.967-11.967-34.198-19.277-53.113-24.77-33.91-9.85-68.641-15.154-103.789-18.418-23.23-2.157-46.503-3.044-69.76-3.437-21.097-.356-42.23.93-63.326 2.433-25.38 1.806-50.591 4.766-75.604 9.308-27.892 5.064-55.162 12.309-80.648 25.13-8.958 4.508-17.748 9.478-23.699 17.874-8.493 11.983-7.886 17.53.193 28.329 4.751 6.35 11.02 11.066 18.668 15.123m458.63 329.827c9.267-11.876 9.496-18.894.806-29.873a56 56 0 0 0-6.117-6.574c-6.844-6.259-14.456-11.375-23.024-15.682-.237 1.253-.466 1.752-.396 2.204 1.895 12.404-2.78 22.448-11.209 31.107-13.003 13.359-29.271 21.365-46.522 27.352-41.228 14.307-84.108 19.388-127.404 20.948-24.598.886-49.241.475-73.858-1.64-25.697-2.208-51.22-5.236-76.255-11.496-21.403-5.352-42.141-12.554-60.59-25.047-15.3-10.362-26.117-23.273-22.3-44.018-8.266 4.014-15.087 8.993-21.82 14.155-4.716 3.615-8.352 8.105-11.559 12.999-3.994 6.093-4.269 12.261-.673 18.766 3.815 6.901 9.326 12.126 15.561 16.654 12.24 8.89 25.914 15.005 40.087 20.026 52.773 18.692 107.655 25.104 163.155 26.936 40.103 1.323 80.163-.09 120.009-5.731 32.018-4.533 63.566-10.976 93.889-22.336 17.488-6.552 34.67-14.01 48.22-28.75m-195.14-229.054c11.693-16.977 28.112-28.827 45.7-40.998-75.271 6.495-82.235 8.172-177.136.276 2.074 1.508 3.599 2.687 5.193 3.765 14.568 9.85 28.16 20.823 38.467 35.257 9.297 13.022 15.288 27.537 14.663 43.699-.732 18.943-8.183 35.514-21.073 49.468-4.854 5.256-10.132 10.117-15.14 15.233-7.906 8.079-7.179 12.638 2.754 18.186 4.68 2.613 9.638 4.567 14.781 5.971 21.634 5.906 43.783 6.07 65.895 4.944 12.897-.656 25.817-2.35 38.121-6.881 5.183-1.91 10.272-4 14.33-7.892 2.9-2.78 3.227-5.218.447-8.97-5.3-7.151-11.853-13.009-17.878-19.405-26.227-27.845-29.72-61.376-9.124-92.653m-104.52 203.666c-1.798-.318-3.594-.65-5.394-.953-20.277-3.412-40.034-8.508-58.077-18.753-11.996-6.812-21.733-15.53-23.316-30.424-.06-.56-.612-1.07-1.096-1.869-9.961 4.367-19.383 9.177-27.923 15.655-2.974 2.256-5.437 4.873-7.464 7.97-4.386 6.701-4.132 12.551.965 18.768 4.4 5.365 9.905 9.388 15.98 12.622 12.09 6.437 24.697 11.837 37.905 15.292 42.36 11.08 85.676 15.33 129.308 15.823 31.943.362 63.74-2.618 95.278-7.904 25.204-4.225 49.833-10.307 72.435-22.81 6.302-3.486 12.286-7.404 17-12.952 5.197-6.117 5.953-12.147 1.387-18.709-9.072-13.036-23.016-18.897-36.974-24.899-.584 1.107-1.018 1.539-.999 1.95.545 11.845-6.287 19.52-14.78 26.27-11.164 8.872-24.185 13.923-37.626 17.962-24.018 7.217-48.692 9.943-73.683 11.269-27.556 1.46-54.825-.453-82.925-4.308m-28.746-344.902c-7.52 1.324-15.072 2.49-22.554 4-19.918 4.02-39.68 8.612-57.821 18.25-5.448 2.894-10.776 6.002-14.61 11.078-3.203 4.24-3.375 8.385-.357 12.882 3.755 5.595 9.056 9.298 14.757 12.448 7.091 3.919 14.515 7.092 22.823 8.774 1.696-11.691 9.516-17.66 18.596-22.47 7.392-3.915 15.353-6.403 23.364-8.645 32.568-9.117 65.975-12.157 99.601-12.823 24.13-.478 48.19 1.257 72.126 4.64 19.645 2.776 38.989 6.714 57.45 14.13 11.542 4.638 21.994 10.68 24.761 24.76 13.126-4.157 25.824-8.123 35.478-18.109 6.599-6.826 6.456-11.648-.462-18.281-6.007-5.76-13.372-9.317-20.944-12.41-20.433-8.345-41.89-12.757-63.535-16.537-25.257-4.41-50.678-7.057-76.294-7.722-37.318-.97-74.516.529-112.379 6.035M457.58 647.68c12.946 2.34 26.082 3.331 39.154 3.753 29.43.95 58.852.378 87.837-5.834 16.301-3.495 32.427-7.551 46.329-17.44 10.975-7.805 11.064-15.535.282-23.704-6.82-5.168-14.582-8.629-22.265-12.25-2.748-1.296-4.204-.386-5.75 1.884-5.32 7.807-12.756 12.974-21.33 16.68-17.347 7.498-35.738 10.408-54.363 11.391-17.765.938-35.596.683-53.173-2.846-20.57-4.128-40.97-8.635-53.584-28.68-5.034 2.328-10.072 4.447-14.907 6.955-5.016 2.601-10.008 5.322-14.22 9.198-6.622 6.095-6.764 11.648-.458 17.964 4.562 4.57 10.194 7.422 16.042 9.912 15.871 6.756 32.631 10.123 50.406 13.017m71.1-248.068c10.003.436 19.822 1.988 29.369 5.038 2.43.776 4.847 1.143 7.369.92 17.034-1.503 34.066-3.07 50.923-6.012 7.613-1.33 15.337-2.308 22.712-4.8-.184-2.868-1.89-4.215-3.617-5.502-5.455-4.063-11.871-5.972-18.25-7.849-29.886-8.795-60.663-11.808-91.584-12.877-34.008-1.175-67.817 1.528-101.116 8.941-10.698 2.381-21.49 4.672-31.466 9.447-3.098 1.483-6.994 3.555-6.305 7.484.61 3.48 4.915 2.633 7.668 3.198 17.102 3.511 34.432 5.656 51.815 6.75 7.868.497 15.83 2.678 23.811.477 18.93-5.221 38.153-7.295 58.67-5.215"/></svg>