<svg xmlns="http://www.w3.org/2000/svg" viewBox="0 0 1000 240" width="100%" preserveAspectRatio="xMidYMid meet" shape-rendering="crispEdges">
<rect width="1000" height="240" fill="#0a0a0a"/>
<rect x="450" y="90" width="100" height="60" fill="none" stroke="#0d9488" stroke-width="4">
<animate attributeName="x" values="450;167" dur="3.0s" begin="0s" repeatCount="indefinite"/>
<animate attributeName="y" values="90;20" dur="3.0s" begin="0s" repeatCount="indefinite"/>
<animate attributeName="width" values="100;666" dur="3.0s" begin="0s" repeatCount="indefinite"/>
<animate attributeName="height" values="60;200" dur="3.0s" begin="0s" repeatCount="indefinite"/>
<animate attributeName="opacity" values="0.9;0" dur="3.0s" begin="0s" repeatCount="indefinite"/>
</rect>
<rect x="450" y="90" width="100" height="60" fill="none" stroke="#14b8a6" stroke-width="4">
<animate attributeName="x" values="450;167" dur="3.0s" begin="1.0s" repeatCount="indefinite"/>
<animate attributeName="y" values="90;20" dur="3.0s" begin="1.0s" repeatCount="indefinite"/>
<animate attributeName="width" values="100;666" dur="3.0s" begin="1.0s" repeatCount="indefinite"/>
<animate attributeName="height" values="60;200" dur="3.0s" begin="1.0s" repeatCount="indefinite"/>
<animate attributeName="opacity" values="0.9;0" dur="3.0s" begin="1.0s" repeatCount="indefinite"/>
</rect>
<rect x="450" y="90" width="100" height="60" fill="none" stroke="#2dd4bf" stroke-width="4">
<animate attributeName="x" values="450;167" dur="3.0s" begin="2.0s" repeatCount="indefinite"/>
<animate attributeName="y" values="90;20" dur="3.0s" begin="2.0s" repeatCount="indefinite"/>
<animate attributeName="width" values="100;666" dur="3.0s" begin="2.0s" repeatCount="indefinite"/>
<animate attributeName="height" values="60;200" dur="3.0s" begin="2.0s" repeatCount="indefinite"/>
<animate attributeName="opacity" values="0.9;0" dur="3.0s" begin="2.0s" repeatCount="indefinite"/>
</rect>
<g fill="#2dd4bf">
<animate attributeName="fill" values="#2dd4bf;#5eead4;#2dd4bf" dur="2.4s" repeatCount="indefinite"/>
<rect x="293" y="57" width="18" height="18"/>
<rect x="311" y="57" width="18" height="18"/>
<rect x="329" y="57" width="18" height="18"/>
<rect x="347" y="57" width="18" height="18"/>
<rect x="293" y="75" width="18" height="18"/>
<rect x="365" y="75" width="18" height="18"/>
<rect x="293" y="93" width="18" height="18"/>
<rect x="365" y="93" width="18" height="18"/>
<rect x="293" y="111" width="18" height="18"/>
<rect x="311" y="111" width="18" height="18"/>
<rect x="329" y="111" width="18" height="18"/>
<rect x="347" y="111" width="18" height="18"/>
<rect x="293" y="129" width="18" height="18"/>
<rect x="329" y="129" width="18" height="18"/>
<rect x="293" y="147" width="18" height="18"/>
<rect x="347" y="147" width="18" height="18"/>
<rect x="293" y="165" width="18" height="18"/>
<rect x="365" y="165" width="18" height="18"/>
<rect x="401" y="57" width="18" height="18"/>
<rect x="419" y="57" width="18" height="18"/>
<rect x="437" y="57" width="18" height="18"/>
<rect x="455" y="57" width="18" height="18"/>
<rect x="473" y="57" width="18" height="18"/>
<rect x="437" y="75" width="18" height="18"/>
<rect x="437" y="93" width="18" height="18"/>
<rect x="437" y="111" width="18" height="18"/>
<rect x="437" y="129" width="18" height="18"/>
<rect x="437" y="147" width="18" height="18"/>
<rect x="401" y="165" width="18" height="18"/>
<rect x="419" y="165" width="18" height="18"/>
<rect x="437" y="165" width="18" height="18"/>
<rect x="455" y="165" width="18" height="18"/>
<rect x="473" y="165" width="18" height="18"/>
<rect x="509" y="57" width="18" height="18"/>
<rect x="527" y="57" width="18" height="18"/>
<rect x="545" y="57" width="18" height="18"/>
<rect x="563" y="57" width="18" height="18"/>
<rect x="581" y="57" width="18" height="18"/>
<rect x="509" y="75" width="18" height="18"/>
<rect x="509" y="93" width="18" height="18"/>
<rect x="509" y="111" width="18" height="18"/>
<rect x="527" y="111" width="18" height="18"/>
<rect x="545" y="111" width="18" height="18"/>
<rect x="563" y="111" width="18" height="18"/>
<rect x="509" y="129" width="18" height="18"/>
<rect x="509" y="147" width="18" height="18"/>
<rect x="509" y="165" width="18" height="18"/>
<rect x="617" y="57" width="18" height="18"/>
<rect x="635" y="57" width="18" height="18"/>
<rect x="653" y="57" width="18" height="18"/>
<rect x="671" y="57" width="18" height="18"/>
<rect x="689" y="57" width="18" height="18"/>
<rect x="653" y="75" width="18" height="18"/>
<rect x="653" y="93" width="18" height="18"/>
<rect x="653" y="111" width="18" height="18"/>
<rect x="653" y="129" width="18" height="18"/>
<rect x="653" y="147" width="18" height="18"/>
<rect x="653" y="165" width="18" height="18"/>
</g>
<g fill="#ec4899">
<rect x="20" y="20" width="18" height="18"/>
<rect x="38" y="20" width="9" height="9"/>
<rect x="20" y="38" width="9" height="9"/>
<rect x="20" y="202" width="18" height="18"/>
<rect x="38" y="202" width="9" height="9"/>
<rect x="20" y="220" width="9" height="9"/>
<rect x="962" y="20" width="18" height="18"/>
<rect x="980" y="20" width="9" height="9"/>
<rect x="962" y="38" width="9" height="9"/>
<rect x="962" y="202" width="18" height="18"/>
<rect x="980" y="202" width="9" height="9"/>
<rect x="962" y="220" width="9" height="9"/>
</g>
<rect x="0" y="0" width="1000" height="3" fill="#5eead4" opacity="0.4">
<animate attributeName="y" values="-3;240" dur="4s" repeatCount="indefinite"/>
</rect>
<g opacity="0.07" fill="#ffffff">
<rect x="0" y="0" width="1000" height="1"/>
<rect x="0" y="4" width="1000" height="1"/>
<rect x="0" y="8" width="1000" height="1"/>
<rect x="0" y="12" width="1000" height="1"/>
<rect x="0" y="16" width="1000" height="1"/>
<rect x="0" y="20" width="1000" height="1"/>
<rect x="0" y="24" width="1000" height="1"/>
<rect x="0" y="28" width="1000" height="1"/>
<rect x="0" y="32" width="1000" height="1"/>
<rect x="0" y="36" width="1000" height="1"/>
<rect x="0" y="40" width="1000" height="1"/>
<rect x="0" y="44" width="1000" height="1"/>
<rect x="0" y="48" width="1000" height="1"/>
<rect x="0" y="52" width="1000" height="1"/>
<rect x="0" y="56" width="1000" height="1"/>
<rect x="0" y="60" width="1000" height="1"/>
<rect x="0" y="64" width="1000" height="1"/>
<rect x="0" y="68" width="1000" height="1"/>
<rect x="0" y="72" width="1000" height="1"/>
<rect x="0" y="76" width="1000" height="1"/>
<rect x="0" y="80" width="1000" height="1"/>
<rect x="0" y="84" width="1000" height="1"/>
<rect x="0" y="88" width="1000" height="1"/>
<rect x="0" y="92" width="1000" height="1"/>
<rect x="0" y="96" width="1000" height="1"/>
<rect x="0" y="100" width="1000" height="1"/>
<rect x="0" y="104" width="1000" height="1"/>
<rect x="0" y="108" width="1000" height="1"/>
<rect x="0" y="112" width="1000" height="1"/>
<rect x="0" y="116" width="1000" height="1"/>
<rect x="0" y="120" width="1000" height="1"/>
<rect x="0" y="124" width="1000" height="1"/>
<rect x="0" y="128" width="1000" height="1"/>
<rect x="0" y="132" width="1000" height="1"/>
<rect x="0" y="136" width="1000" height="1"/>
<rect x="0" y="140" width="1000" height="1"/>
<rect x="0" y="144" width="1000" height="1"/>
<rect x="0" y="148" width="1000" height="1"/>
<rect x="0" y="152" width="1000" height="1"/>
<rect x="0" y="156" width="1000" height="1"/>
<rect x="0" y="160" width="1000" height="1"/>
<rect x="0" y="164" width="1000" height="1"/>
<rect x="0" y="168" width="1000" height="1"/>
<rect x="0" y="172" width="1000" height="1"/>
<rect x="0" y="176" width="1000" height="1"/>
<rect x="0" y="180" width="1000" height="1"/>
<rect x="0" y="184" width="1000" height="1"/>
<rect x="0" y="188" width="1000" height="1"/>
<rect x="0" y="192" width="1000" height="1"/>
<rect x="0" y="196" width="1000" height="1"/>
<rect x="0" y="200" width="1000" height="1"/>
<rect x="0" y="204" width="1000" height="1"/>
<rect x="0" y="208" width="1000" height="1"/>
<rect x="0" y="212" width="1000" height="1"/>
<rect x="0" y="216" width="1000" height="1"/>
<rect x="0" y="220" width="1000" height="1"/>
<rect x="0" y="224" width="1000" height="1"/>
<rect x="0" y="228" width="1000" height="1"/>
<rect x="0" y="232" width="1000" height="1"/>
<rect x="0" y="236" width="1000" height="1"/>
</g>
</svg>
